<svg version="1.1" xmlns="http://www.w3.org/2000/svg" viewBox="0 0 1151.1247553318356 613.5153803318356" width="2302.249510663671" height="1227.0307606636711" filter="invert(93%) hue-rotate(180deg)">
  <!-- svg-source:excalidraw -->
  
  <defs>
    <style class="style-fonts">
      @font-face {
        font-family: "Virgil";
        src: url("https://excalidraw.com/Virgil.woff2");
      }
      @font-face {
        font-family: "Cascadia";
        src: url("https://excalidraw.com/Cascadia.woff2");
      }
      @font-face {
        font-family: "Assistant";
        src: url("https://app.excalidraw.com//dist/excalidraw-assets/Assistant-Regular.woff2");
      }
    </style>
    
  </defs>
  <rect x="0" y="0" width="1151.1247553318356" height="613.5153803318356" fill="#ffffff"></rect><g stroke-opacity="0" fill-opacity="0" stroke-linecap="round" transform="translate(10 155.71118216816438) rotate(0 139.06616158183562 139.06616158183562)"><path d="M175.99 4.96 C190.38 6.61, 205.07 15.06, 217.71 23.78 C230.35 32.5, 242.69 45.09, 251.81 57.27 C260.93 69.44, 268.16 82.62, 272.44 96.83 C276.72 111.04, 277.87 127.46, 277.51 142.53 C277.14 157.6, 275.4 173.19, 270.26 187.28 C265.11 201.36, 256.27 215.4, 246.65 227.02 C237.04 238.64, 225.54 249.19, 212.58 257 C199.62 264.8, 183.61 270.4, 168.9 273.84 C154.2 277.28, 139.11 279.32, 124.35 277.66 C109.6 276.01, 94.12 270.35, 80.36 263.93 C66.61 257.52, 52.57 249.41, 41.82 239.17 C31.08 228.94, 22.72 215.87, 15.9 202.54 C9.08 189.2, 3 174.01, 0.89 159.16 C-1.23 144.31, 0.26 128.26, 3.2 113.43 C6.15 98.59, 11.21 83.44, 18.56 70.15 C25.9 56.87, 36.06 43.53, 47.25 33.72 C58.44 23.9, 71.56 16.89, 85.69 11.26 C99.83 5.64, 116.54 0.97, 132.07 -0.04 C147.59 -1.05, 170.52 3.71, 178.85 5.23 C187.18 6.74, 182.69 6.85, 182.04 9.06 M188.19 9.35 C201.96 12.3, 214.66 23.22, 226.32 32.67 C237.97 42.11, 250.27 53.11, 258.13 66.02 C265.99 78.93, 270.45 95.16, 273.47 110.12 C276.49 125.07, 277.47 141.06, 276.25 155.74 C275.04 170.43, 272.5 184.7, 266.18 198.24 C259.85 211.79, 249.26 226.22, 238.3 237.01 C227.34 247.8, 213.92 256.48, 200.43 262.99 C186.93 269.5, 171.92 274.01, 157.32 276.09 C142.71 278.16, 127.55 278.36, 112.8 275.43 C98.04 272.51, 82.03 266.24, 68.77 258.54 C55.51 250.84, 42.98 240.58, 33.22 229.23 C23.46 217.89, 15.92 204.35, 10.23 190.45 C4.54 176.55, -0.14 160.7, -0.91 145.85 C-1.69 130.99, 1.03 115.55, 5.57 101.32 C10.12 87.09, 17.68 73.01, 26.34 60.45 C34.99 47.88, 45.66 34.82, 57.51 25.92 C69.36 17.02, 83.09 11.32, 97.45 7.04 C111.8 2.77, 128.77 -0.05, 143.66 0.28 C158.56 0.61, 179.4 7.38, 186.82 9.02 C194.25 10.66, 188.65 7.92, 188.22 10.11" stroke="#1e1e1e" stroke-width="1" fill="none"></path></g><g stroke-linecap="round" transform="translate(80.90570512883312 196.90673117435054) rotate(0 69.2500552240096 46.16670348267313)"><path d="M23.08 0 C48.84 -0.92, 75.78 -1.01, 115.42 0 M23.08 0 C46.9 -0.02, 68.78 -1.29, 115.42 0 M115.42 0 C130.33 1.82, 137.64 8.01, 138.5 23.08 M115.42 0 C130 1.34, 137.41 6.09, 138.5 23.08 M138.5 23.08 C139.77 30.88, 137.98 43.16, 138.5 69.25 M138.5 23.08 C139.62 41.54, 139.65 58.68, 138.5 69.25 M138.5 69.25 C139.51 83.86, 129.68 90.49, 115.42 92.33 M138.5 69.25 C140.78 86.46, 130.21 90.7, 115.42 92.33 M115.42 92.33 C93.98 90.22, 76.23 93.15, 23.08 92.33 M115.42 92.33 C80.52 93.12, 47.72 92.31, 23.08 92.33 M23.08 92.33 C5.89 93.95, -1.34 86.14, 0 69.25 M23.08 92.33 C9.92 91.71, -0.41 85.85, 0 69.25 M0 69.25 C-0.93 59.96, -0.01 48.25, 0 23.08 M0 69.25 C0.32 57.5, -0.49 46.28, 0 23.08 M0 23.08 C0.34 8.15, 9.57 1.11, 23.08 0 M0 23.08 C0.91 6.26, 7.16 1.19, 23.08 0" stroke="#1e1e1e" stroke-width="1" fill="none"></path></g><g stroke-linecap="round" transform="translate(67.69600150995655 299.5173413625307) rotate(0 81.37016007187901 11.138120770295018)"><path d="M5.57 0 C57.79 -0.19, 112.2 -1.55, 157.17 0 M5.57 0 C62.08 -1.62, 119.57 -0.13, 157.17 0 M157.17 0 C160.02 0.31, 162.04 3.02, 162.74 5.57 M157.17 0 C159.79 -1.61, 160.67 2.91, 162.74 5.57 M162.74 5.57 C162.39 9.69, 163.75 13.69, 162.74 16.71 M162.74 5.57 C163.33 8.4, 163.12 11.03, 162.74 16.71 M162.74 16.71 C161.61 18.58, 162.87 23.86, 157.17 22.28 M162.74 16.71 C162.15 18.79, 159.04 23.61, 157.17 22.28 M157.17 22.28 C120.45 22.27, 82.2 21.18, 5.57 22.28 M157.17 22.28 C107.62 22.78, 56.57 23.88, 5.57 22.28 M5.57 22.28 C0.51 23.78, 1.94 19.88, 0 16.71 M5.57 22.28 C1.45 23.49, -1.85 20, 0 16.71 M0 16.71 C0 13.41, -0.56 10.32, 0 5.57 M0 16.71 C-0.42 13.86, 0.09 11.59, 0 5.57 M0 5.57 C1.88 2.96, 2.65 -1.25, 5.57 0 M0 5.57 C-0.54 3.05, 2.64 0.34, 5.57 0" stroke="#1e1e1e" stroke-width="1" fill="none"></path></g><g stroke-linecap="round" transform="translate(187.6791851129724 307.67483826471937) rotate(0 14.580654185214371 2.81067601597843)"><path d="M1.41 0 C8.27 -0.9, 16.89 0.7, 27.76 0 M1.41 0 C11 0.53, 20.62 0.15, 27.76 0 M27.76 0 C28.34 0.58, 28.69 -0.23, 29.16 1.41 M27.76 0 C27.66 0.53, 29.58 1.08, 29.16 1.41 M29.16 1.41 C29.28 2.06, 29.09 2.68, 29.16 4.22 M29.16 1.41 C29.21 2.4, 29.13 3.39, 29.16 4.22 M29.16 4.22 C30.15 5.94, 28.43 4.91, 27.76 5.62 M29.16 4.22 C28.24 5.82, 28.14 4.98, 27.76 5.62 M27.76 5.62 C22.73 5.79, 16.63 4.8, 1.41 5.62 M27.76 5.62 C18.02 5.99, 8.85 5.96, 1.41 5.62 M1.41 5.62 C1.44 5.35, -0.18 5.68, 0 4.22 M1.41 5.62 C-0.46 5.41, -0.46 4.57, 0 4.22 M0 4.22 C-0.08 3.18, -0.09 2.3, 0 1.41 M0 4.22 C0.02 3.52, 0.08 2.84, 0 1.41 M0 1.41 C0.4 -0.16, 0.24 0.52, 1.41 0 M0 1.41 C0.39 0.64, -0.48 0.08, 1.41 0" stroke="#1e1e1e" stroke-width="1" fill="none"></path></g><g stroke-linecap="round" transform="translate(136.01503806578143 290.68005305182567) rotate(0 14.5806541852144 2.81067601597843)"><path d="M1.41 0 C9.41 0.79, 16.57 -0.48, 27.76 0 M1.41 0 C7.58 -0.04, 14 0.17, 27.76 0 M27.76 0 C28.22 -0.7, 28.26 0.93, 29.16 1.41 M27.76 0 C29.11 0.61, 28.06 0.05, 29.16 1.41 M29.16 1.41 C29.11 2.46, 29.26 3.41, 29.16 4.22 M29.16 1.41 C29.13 2.18, 29.24 3.14, 29.16 4.22 M29.16 4.22 C28.9 4.44, 27.89 6.2, 27.76 5.62 M29.16 4.22 C28.61 4.51, 27.73 6.45, 27.76 5.62 M27.76 5.62 C18.48 4.73, 9.16 5.94, 1.41 5.62 M27.76 5.62 C20.28 6.1, 13.96 5.59, 1.41 5.62 M1.41 5.62 C0.29 6.15, -0.8 4.97, 0 4.22 M1.41 5.62 C0.01 5.04, 0.49 5.1, 0 4.22 M0 4.22 C-0.08 3.48, -0.06 2.63, 0 1.41 M0 4.22 C0.06 3.53, 0.03 2.72, 0 1.41 M0 1.41 C-0.23 0.99, 0.81 0.15, 1.41 0 M0 1.41 C-0.95 0.55, 1.34 -1.08, 1.41 0" stroke="#1e1e1e" stroke-width="1" fill="none"></path></g><g stroke-linecap="round" transform="translate(92.80013093823362 207.58878674716098) rotate(0 57.44403351613201 36.0307361656463)"><path d="M18.02 0 C35.7 -1.73, 49.48 -1, 96.87 0 M18.02 0 C48.49 0.46, 79.18 -0.82, 96.87 0 M96.87 0 C107.09 0.92, 115.61 7.06, 114.89 18.02 M96.87 0 C106.69 -0.84, 115.67 7.98, 114.89 18.02 M114.89 18.02 C116.02 32.64, 114.7 44.7, 114.89 54.05 M114.89 18.02 C115.68 28.21, 114.43 36.12, 114.89 54.05 M114.89 54.05 C113.29 67.22, 107.92 70.94, 96.87 72.06 M114.89 54.05 C112.97 67.71, 110.33 73.63, 96.87 72.06 M96.87 72.06 C73.6 71.96, 47.65 69.55, 18.02 72.06 M96.87 72.06 C67.8 72.38, 36.6 73.18, 18.02 72.06 M18.02 72.06 C4.4 71.7, -0.8 65.04, 0 54.05 M18.02 72.06 C6.98 71.95, -0.83 64.77, 0 54.05 M0 54.05 C-0.72 43.7, -0.6 36.65, 0 18.02 M0 54.05 C0.06 41.8, -0.57 31.32, 0 18.02 M0 18.02 C0.68 6.3, 4.35 0.14, 18.02 0 M0 18.02 C1.75 3.84, 7.7 0.35, 18.02 0" stroke="#1e1e1e" stroke-width="1" fill="none"></path></g><g transform="translate(55.58625740703076 350.3712027538643) rotate(0 93.47990417480469 12.5)"><text x="93.47990417480469" y="0" font-family="Virgil, Segoe UI Emoji" font-size="20px" fill="#1e1e1e" text-anchor="middle" style="white-space: pre;" direction="ltr" dominant-baseline="text-before-edge">Inscription testbed</text></g><g stroke-opacity="0" fill-opacity="0" stroke-linecap="round" transform="translate(486.0859375 75.93774466816438) rotate(0 58.378661581835615 58.378661581835615)"><path d="M71.88 2.01 C80.56 3.39, 91.53 8.87, 98.3 15 C105.06 21.13, 109.39 30.3, 112.47 38.81 C115.56 47.32, 117.91 57.17, 116.8 66.06 C115.68 74.95, 110.99 84.76, 105.8 92.14 C100.6 99.52, 93.45 106.21, 85.63 110.32 C77.8 114.44, 68.01 116.97, 58.85 116.84 C49.68 116.71, 38.66 113.69, 30.63 109.53 C22.6 105.37, 15.59 99.41, 10.65 91.87 C5.71 84.34, 2.04 73.46, 0.98 64.31 C-0.09 55.15, 1 45.35, 4.29 36.94 C7.57 28.53, 13.86 19.79, 20.67 13.86 C27.48 7.94, 35.3 2.84, 45.15 1.39 C55 -0.06, 72.53 4.03, 79.77 5.18 C87.01 6.33, 88.83 7.52, 88.61 8.29 M85.06 5.54 C93.09 8.8, 101.83 16.65, 107.02 24.13 C112.21 31.61, 115.05 41.45, 116.19 50.43 C117.32 59.4, 117.19 69.5, 113.83 77.99 C110.48 86.47, 102.67 94.94, 96.04 101.33 C89.41 107.72, 82.39 114.15, 74.04 116.34 C65.7 118.53, 55.13 116.63, 45.97 114.47 C36.8 112.31, 25.93 109.3, 19.06 103.39 C12.18 97.47, 7.6 87.77, 4.72 78.96 C1.85 70.16, 0.88 59.25, 1.8 50.56 C2.71 41.87, 5.45 34.06, 10.2 26.82 C14.96 19.59, 22.52 11.57, 30.31 7.16 C38.1 2.75, 47.65 0.29, 56.94 0.37 C66.24 0.44, 81.38 6.55, 86.06 7.6 C90.75 8.64, 85.58 6.14, 85.05 6.65" stroke="#1e1e1e" stroke-width="1" fill="none"></path></g><g transform="translate(470.1046671360348 152.67423186610603) rotate(0 74.35993194580078 12.5)"><text x="74.35993194580078" y="0" font-family="Virgil, Segoe UI Emoji" font-size="20px" fill="#1e1e1e" text-anchor="middle" style="white-space: pre;" direction="ltr" dominant-baseline="text-before-edge">Asset Canister</text></g><g stroke-linecap="round"><g transform="translate(519.551783554976 109.01373638180218) rotate(0 21.45164646798804 11.061600613996621)"><path d="M-0.62 -1.03 C-0.68 3.86, -0.12 23.77, 0.27 29.39 C0.65 35.01, 0.36 31.14, 1.71 32.69 C3.06 34.23, 5.98 37.41, 8.35 38.66 C10.73 39.91, 12.93 39.81, 15.96 40.19 C18.98 40.56, 23.28 41.31, 26.49 40.9 C29.7 40.5, 32.77 39.22, 35.21 37.76 C37.66 36.3, 40.02 33.77, 41.14 32.14 C42.26 30.5, 41.52 31.44, 41.93 27.96 C42.34 24.49, 43.56 16.85, 43.58 11.28 C43.6 5.72, 42.28 -1.75, 42.04 -5.43 C41.8 -9.11, 42.98 -9.17, 42.13 -10.8 C41.29 -12.42, 39.6 -13.68, 36.98 -15.16 C34.37 -16.64, 29.97 -19.32, 26.45 -19.67 C22.94 -20.02, 19.49 -17.89, 15.88 -17.26 C12.27 -16.64, 7.27 -17.04, 4.8 -15.95 C2.32 -14.86, 1.69 -12.11, 1.03 -10.73 C0.37 -9.35, 0.99 -9.32, 0.81 -7.66 C0.64 -6, 0 -1.93, -0.02 -0.74 M1.25 1.05 C1.01 5.62, -0.5 22.41, -0.54 27.84 C-0.59 33.27, -0.63 32.18, 0.98 33.61 C2.58 35.04, 6.8 35.31, 9.08 36.43 C11.36 37.55, 12.09 39.7, 14.64 40.33 C17.2 40.95, 20.87 40.72, 24.41 40.16 C27.95 39.6, 33.28 38.38, 35.9 36.96 C38.53 35.54, 38.87 33.3, 40.17 31.62 C41.47 29.95, 43.54 30.32, 43.69 26.92 C43.85 23.52, 41.4 16.4, 41.1 11.21 C40.81 6.02, 41.4 -0.56, 41.91 -4.22 C42.42 -7.89, 44.99 -8.85, 44.15 -10.77 C43.3 -12.69, 39.95 -14.75, 36.86 -15.76 C33.77 -16.76, 28.98 -16.55, 25.61 -16.8 C22.25 -17.04, 20.07 -17.56, 16.68 -17.21 C13.29 -16.86, 8.07 -15.41, 5.25 -14.71 C2.43 -14.02, 0.63 -14.19, -0.26 -13.04 C-1.15 -11.9, 0.09 -9.87, -0.1 -7.84 C-0.3 -5.81, -1.69 -2.36, -1.41 -0.88" stroke="#1e1e1e" stroke-width="1" fill="none"></path></g></g><mask></mask><g stroke-linecap="round"><g transform="translate(519.8801250825474 99.22564999502487) rotate(0 21.396922880059492 4.432610622211808)"><path d="M0.12 0.5 C0.94 1.38, 2.04 3.41, 4.63 4.8 C7.21 6.18, 11.96 8.18, 15.63 8.82 C19.3 9.46, 23.13 9.09, 26.63 8.65 C30.12 8.2, 33.9 7.35, 36.6 6.17 C39.3 4.99, 41.79 2.44, 42.83 1.57 M-0.48 0.28 C0.29 1.26, 1.55 4.05, 4.21 5.32 C6.87 6.59, 11.73 7.28, 15.5 7.9 C19.26 8.52, 23.39 9.27, 26.81 9.03 C30.23 8.8, 33.22 7.76, 36.01 6.48 C38.79 5.2, 42.3 2.1, 43.49 1.34" stroke="#1e1e1e" stroke-width="1" fill="none"></path></g></g><mask></mask><g stroke-linecap="round"><g transform="translate(519.528724633639 108.48893014355707) rotate(0 21.396922880059492 4.432610622211808)"><path d="M0.03 -0.35 C0.85 0.48, 2.46 3.98, 5.01 5.43 C7.57 6.87, 11.75 7.7, 15.35 8.32 C18.96 8.93, 23.12 9.45, 26.64 9.12 C30.16 8.8, 33.78 7.75, 36.48 6.39 C39.18 5.02, 41.82 1.78, 42.84 0.95 M-0.62 0.67 C0.15 1.56, 2.18 3.25, 4.8 4.61 C7.41 5.96, 11.4 8.22, 15.08 8.8 C18.75 9.38, 23.37 8.7, 26.83 8.09 C30.29 7.48, 33.05 6.42, 35.83 5.14 C38.61 3.86, 42.35 1.1, 43.5 0.4" stroke="#1e1e1e" stroke-width="1" fill="none"></path></g></g><mask></mask><g stroke-linecap="round"><g transform="translate(519.2279044930905 115.20017525114434) rotate(0 21.396922880059492 4.432610622211808)"><path d="M0.42 0.28 C1.2 1.16, 2.25 3.51, 4.74 4.92 C7.23 6.34, 11.73 8.06, 15.36 8.8 C19 9.53, 23 9.85, 26.52 9.34 C30.05 8.83, 33.81 7.09, 36.49 5.76 C39.17 4.44, 41.49 2.11, 42.6 1.39 M-0.03 -0.05 C0.69 0.93, 1.86 4.19, 4.38 5.51 C6.9 6.83, 11.38 7.38, 15.09 7.86 C18.81 8.35, 23.2 8.75, 26.66 8.42 C30.11 8.09, 33.1 7.09, 35.85 5.86 C38.59 4.64, 42.12 1.89, 43.14 1.07" stroke="#1e1e1e" stroke-width="1" fill="none"></path></g></g><mask></mask><g stroke-opacity="0" fill-opacity="0" stroke-linecap="round" transform="translate(483.28125 289.7541509181644) rotate(0 58.378661581835615 58.378661581835615)"><path d="M67.48 0 C76.23 0.56, 86.73 6.38, 93.99 12.04 C101.24 17.69, 107.1 25.66, 111.02 33.95 C114.94 42.25, 117.71 52.82, 117.5 61.82 C117.29 70.81, 114.49 80.24, 109.73 87.91 C104.97 95.59, 96.87 103.23, 88.96 107.86 C81.05 112.49, 71.29 114.9, 62.29 115.71 C53.29 116.52, 43.29 116.09, 34.95 112.7 C26.62 109.31, 17.85 102.64, 12.27 95.36 C6.68 88.08, 3.2 77.82, 1.45 69.01 C-0.29 60.2, -0.85 50.89, 1.81 42.49 C4.48 34.09, 10.97 25.3, 17.42 18.59 C23.86 11.87, 30.34 4.67, 40.48 2.2 C50.62 -0.27, 70.33 2.59, 78.27 3.74 C86.21 4.9, 88.35 8.19, 88.1 9.12 M82.04 5.47 C90.12 8.41, 98.41 15.29, 103.95 22.28 C109.49 29.28, 113.66 38.57, 115.29 47.44 C116.91 56.31, 116.23 67.12, 113.71 75.53 C111.2 83.94, 106.57 91.3, 100.19 97.88 C93.81 104.46, 84.18 112.01, 75.44 114.99 C66.7 117.97, 56.61 117.56, 47.72 115.77 C38.84 113.98, 29.31 109.6, 22.13 104.26 C14.94 98.92, 8.26 91.93, 4.62 83.71 C0.97 75.49, -0.45 64.03, 0.25 54.94 C0.94 45.86, 4.32 37.08, 8.76 29.2 C13.2 21.32, 19.3 12.52, 26.87 7.64 C34.44 2.76, 45.03 0.51, 54.19 -0.08 C63.35 -0.66, 77.07 2.91, 81.81 4.13 C86.55 5.36, 82.91 6.39, 82.64 7.28" stroke="#1e1e1e" stroke-width="1" fill="none"></path></g><g transform="translate(445.80000252421837 366.490638116106) rotate(0 95.85990905761719 12.5)"><text x="95.85990905761719" y="0" font-family="Virgil, Segoe UI Emoji" font-size="20px" fill="#1e1e1e" text-anchor="middle" style="white-space: pre;" direction="ltr" dominant-baseline="text-before-edge">Inscription Canister</text></g><g stroke-linecap="round"><g transform="translate(516.747096054976 322.8301426318022) rotate(0 21.45164646798804 11.061600613996617)"><path d="M0.36 -0.78 C0.13 4.1, -1.21 22.92, -0.98 28.57 C-0.75 34.22, 0.3 31.38, 1.75 33.12 C3.2 34.86, 5.28 37.55, 7.73 39.01 C10.19 40.47, 13.41 41.7, 16.48 41.86 C19.56 42.02, 23.07 40.93, 26.16 39.99 C29.26 39.06, 32.75 37.54, 35.05 36.25 C37.35 34.96, 38.61 33.86, 39.98 32.24 C41.35 30.63, 42.73 30.09, 43.28 26.54 C43.82 23, 43.43 16.51, 43.24 10.99 C43.04 5.47, 42.07 -2.97, 42.11 -6.57 C42.15 -10.17, 44.01 -9.15, 43.45 -10.61 C42.9 -12.07, 41.69 -13.87, 38.77 -15.33 C35.84 -16.8, 29.85 -18.81, 25.89 -19.4 C21.92 -19.99, 18.43 -19.42, 14.98 -18.87 C11.53 -18.32, 7.48 -17.44, 5.19 -16.1 C2.9 -14.77, 1.99 -12.28, 1.22 -10.87 C0.45 -9.46, 0.79 -9.51, 0.59 -7.63 C0.4 -5.75, 0.17 -0.91, 0.05 0.39 M-0.92 1.43 C-0.81 5.98, 0.89 21.12, 1.22 26.59 C1.54 32.06, -0.11 32.54, 1.04 34.26 C2.19 35.99, 5.73 36.14, 8.14 36.96 C10.54 37.79, 12.21 38.91, 15.45 39.22 C18.69 39.52, 24.21 38.92, 27.58 38.77 C30.94 38.62, 33.23 39.48, 35.65 38.32 C38.06 37.15, 40.98 33.44, 42.05 31.79 C43.12 30.14, 41.72 31.92, 42.09 28.42 C42.45 24.91, 44.25 16.49, 44.24 10.76 C44.22 5.03, 42.3 -2.42, 42.01 -5.96 C41.72 -9.5, 43.52 -8.81, 42.5 -10.48 C41.49 -12.16, 38.27 -14.43, 35.92 -16.02 C33.57 -17.62, 31.85 -19.44, 28.42 -20.05 C24.98 -20.65, 19.06 -20.51, 15.3 -19.66 C11.54 -18.81, 8.39 -16.02, 5.85 -14.95 C3.3 -13.88, 1.08 -14.45, 0.03 -13.26 C-1.02 -12.06, -0.22 -10.15, -0.44 -7.8 C-0.67 -5.44, -1.44 -0.19, -1.31 0.86" stroke="#1e1e1e" stroke-width="1" fill="none"></path></g></g><mask></mask><g stroke-linecap="round"><g transform="translate(517.0754375825475 313.04205624502487) rotate(0 21.396922880059492 4.432610622211811)"><path d="M-0.45 0.12 C0.3 1.02, 2.01 3.52, 4.65 4.99 C7.28 6.47, 11.64 8.24, 15.35 8.98 C19.05 9.72, 23.35 9.95, 26.87 9.41 C30.39 8.87, 33.8 7.18, 36.45 5.75 C39.1 4.33, 41.78 1.67, 42.75 0.88 M0.32 -0.29 C0.99 0.71, 1.78 4.21, 4.24 5.62 C6.7 7.02, 11.24 7.66, 15.07 8.14 C18.89 8.63, 23.72 8.91, 27.18 8.53 C30.63 8.15, 33.08 7.22, 35.78 5.85 C38.48 4.48, 42.28 1.21, 43.38 0.29" stroke="#1e1e1e" stroke-width="1" fill="none"></path></g></g><mask></mask><g stroke-linecap="round"><g transform="translate(516.7240371336391 322.30533639355707) rotate(0 21.396922880059492 4.432610622211811)"><path d="M0.05 -0.15 C0.91 0.76, 2.14 4.05, 4.73 5.59 C7.32 7.13, 11.97 8.56, 15.6 9.08 C19.22 9.6, 23.02 9.27, 26.49 8.71 C29.96 8.14, 33.77 6.98, 36.41 5.69 C39.04 4.41, 41.17 1.82, 42.31 1 M-0.59 -0.7 C0.25 0.05, 1.7 3.35, 4.37 4.85 C7.04 6.35, 11.74 7.59, 15.44 8.3 C19.15 9.01, 23.22 9.55, 26.6 9.13 C29.98 8.71, 33.04 7.2, 35.72 5.76 C38.4 4.31, 41.64 1.16, 42.7 0.47" stroke="#1e1e1e" stroke-width="1" fill="none"></path></g></g><mask></mask><g stroke-linecap="round"><g transform="translate(516.4232169930904 329.01658150114434) rotate(0 21.396922880059492 4.432610622211797)"><path d="M0.13 0.44 C0.96 1.42, 2.47 4.37, 4.98 5.69 C7.49 7.01, 11.64 7.89, 15.22 8.38 C18.79 8.87, 22.99 9.08, 26.45 8.65 C29.9 8.22, 33.16 7.13, 35.96 5.81 C38.75 4.49, 42.04 1.5, 43.22 0.74 M-0.46 0.2 C0.32 1.04, 2.19 3.56, 4.74 5.01 C7.3 6.46, 11.24 8.23, 14.87 8.9 C18.5 9.57, 22.9 9.53, 26.54 9.04 C30.18 8.54, 34.06 7.15, 36.7 5.94 C39.35 4.72, 41.29 2.61, 42.41 1.75" stroke="#1e1e1e" stroke-width="1" fill="none"></path></g></g><mask></mask><g stroke-opacity="0" fill-opacity="0" stroke-linecap="round" transform="translate(740.356162502467 177.25805716816438) rotate(0 50.05053658183556 50.050536581835615)"><path d="M64.12 2.2 C72.11 3.84, 81.03 9.54, 86.94 15.52 C92.86 21.5, 97.79 30.01, 99.61 38.06 C101.44 46.11, 100.45 55.69, 97.89 63.83 C95.34 71.97, 90.39 81.04, 84.27 86.9 C78.15 92.76, 69.33 97.02, 61.18 98.98 C53.02 100.93, 43.3 101.14, 35.35 98.61 C27.41 96.09, 19.1 89.98, 13.5 83.83 C7.9 77.68, 3.76 69.84, 1.74 61.72 C-0.29 53.61, -0.9 43.3, 1.34 35.15 C3.58 27, 8.88 18.5, 15.17 12.82 C21.45 7.15, 29.72 2.43, 39.04 1.1 C48.35 -0.23, 64.5 3.31, 71.06 4.83 C77.62 6.34, 78.5 9.3, 78.38 10.19 M51.28 -0.05 C58.94 -0.67, 67.54 1.38, 74.46 5.89 C81.37 10.4, 88.58 19.74, 92.76 27 C96.94 34.25, 99.31 41.45, 99.53 49.44 C99.74 57.43, 98.05 67.42, 94.07 74.93 C90.08 82.44, 83.23 90.11, 75.64 94.48 C68.04 98.85, 57.25 101.34, 48.47 101.16 C39.7 100.97, 29.82 97.85, 22.98 93.36 C16.15 88.87, 11.32 81.44, 7.48 74.23 C3.64 67.03, -0.02 58.3, -0.08 50.14 C-0.14 41.98, 2.8 32.82, 7.13 25.27 C11.46 17.73, 18.42 8.86, 25.9 4.86 C33.38 0.87, 47.97 1.82, 52.01 1.32 C56.05 0.82, 50.16 1.47, 50.14 1.87" stroke="#1e1e1e" stroke-width="1" fill="none"></path></g><g transform="translate(721.2725590696541 243.04754695080038) rotate(0 69.13414001464844 10.716787441177118)"><text x="69.13414001464844" y="0" font-family="Virgil, Segoe UI Emoji" font-size="17.146859905883392px" fill="#1e1e1e" text-anchor="middle" style="white-space: pre;" direction="ltr" dominant-baseline="text-before-edge">Schnorr Canister</text></g><g stroke-linecap="round"><g transform="translate(769.0478711992937 205.61552697625973) rotate(0 18.391418836856474 9.483585803151698)"><path d="M-0.62 -0.47 C-0.72 3.8, -0.21 19.73, 0.07 24.75 C0.36 29.78, 0.15 28.38, 1.09 29.67 C2.03 30.97, 3.79 31.67, 5.71 32.53 C7.63 33.38, 9.73 34.53, 12.59 34.81 C15.45 35.09, 19.91 34.82, 22.87 34.22 C25.83 33.62, 28.17 32.29, 30.36 31.21 C32.54 30.13, 35.07 28.96, 35.97 27.75 C36.86 26.53, 35.57 27.19, 35.74 23.91 C35.91 20.64, 36.89 13.05, 36.98 8.1 C37.06 3.16, 36.49 -2.83, 36.26 -5.76 C36.03 -8.69, 36.32 -8.12, 35.61 -9.49 C34.9 -10.86, 34.14 -13.06, 32.01 -13.97 C29.89 -14.87, 25.9 -14.79, 22.86 -14.91 C19.82 -15.02, 16.57 -14.89, 13.76 -14.67 C10.96 -14.46, 8.12 -14.21, 6.04 -13.61 C3.95 -13.02, 2.16 -12.42, 1.24 -11.1 C0.32 -9.78, 0.89 -7.41, 0.52 -5.72 C0.15 -4.02, -0.76 -2.07, -0.98 -0.93 M1.26 -1.77 C0.94 2.22, -0.65 17.95, -0.84 22.89 C-1.02 27.83, -0.92 26.07, 0.15 27.86 C1.23 29.64, 3.24 32.37, 5.6 33.59 C7.97 34.81, 11.81 35.27, 14.35 35.17 C16.89 35.07, 18.06 33.9, 20.85 32.99 C23.65 32.08, 28.71 30.65, 31.12 29.71 C33.54 28.78, 34.3 28.52, 35.35 27.36 C36.4 26.21, 37 25.55, 37.42 22.79 C37.85 20.03, 38.08 15.47, 37.9 10.81 C37.71 6.15, 36.39 -1.76, 36.31 -5.16 C36.22 -8.57, 38.09 -7.99, 37.39 -9.65 C36.69 -11.31, 34.64 -14.29, 32.1 -15.11 C29.56 -15.93, 25.06 -14.66, 22.14 -14.58 C19.22 -14.5, 17.6 -15.01, 14.57 -14.64 C11.53 -14.27, 6.32 -12.98, 3.92 -12.34 C1.52 -11.71, 0.9 -12, 0.15 -10.84 C-0.59 -9.67, -0.65 -6.99, -0.54 -5.37 C-0.44 -3.76, 0.81 -2.04, 0.79 -1.17" stroke="#1e1e1e" stroke-width="1" fill="none"></path></g></g><mask></mask><g stroke-linecap="round"><g transform="translate(769.3293725080214 197.22377967522198) rotate(0 18.344501952068526 3.800267667819824)"><path d="M0.03 0.23 C0.71 1.07, 1.68 3.69, 3.79 4.87 C5.91 6.04, 9.65 6.83, 12.73 7.28 C15.82 7.73, 19.21 7.97, 22.33 7.58 C25.45 7.18, 29.04 6.03, 31.45 4.9 C33.86 3.77, 35.86 1.48, 36.8 0.81 M-0.61 -0.13 C0.01 0.59, 1.15 2.81, 3.29 4.14 C5.43 5.47, 9.07 7.2, 12.23 7.86 C15.39 8.51, 19.14 8.54, 22.25 8.06 C25.36 7.59, 28.34 6.29, 30.88 4.99 C33.42 3.69, 36.39 1.06, 37.5 0.27" stroke="#1e1e1e" stroke-width="1" fill="none"></path></g></g><mask></mask><g stroke-linecap="round"><g transform="translate(769.0281017946065 205.16558802401363) rotate(0 18.344501952068526 3.800267667819824)"><path d="M-0.15 0.46 C0.45 1.15, 1.5 3.23, 3.63 4.37 C5.77 5.51, 9.45 6.78, 12.66 7.29 C15.88 7.8, 19.79 7.83, 22.91 7.43 C26.03 7.04, 29 6.03, 31.35 4.94 C33.71 3.85, 36.2 1.53, 37.05 0.9 M0.78 0.22 C1.56 0.98, 2.54 3.77, 4.71 5.05 C6.88 6.33, 10.72 7.41, 13.79 7.88 C16.86 8.35, 20.3 8.32, 23.13 7.85 C25.95 7.38, 28.56 6.29, 30.74 5.05 C32.92 3.81, 35.23 1.14, 36.21 0.41" stroke="#1e1e1e" stroke-width="1" fill="none"></path></g></g><mask></mask><g stroke-linecap="round"><g transform="translate(768.7701957542636 210.91942700670583) rotate(0 18.344501952068526 3.800267667819824)"><path d="M-0.31 -0.04 C0.31 0.61, 1.3 3.19, 3.56 4.39 C5.82 5.58, 10.04 6.64, 13.25 7.15 C16.45 7.67, 19.76 7.83, 22.82 7.47 C25.88 7.12, 29.34 6.08, 31.6 5.03 C33.87 3.98, 35.55 1.92, 36.42 1.17 M0.53 -0.54 C1.34 0.45, 2.52 3.71, 4.6 5.07 C6.68 6.44, 9.94 7.19, 13 7.66 C16.06 8.14, 19.96 8.32, 22.98 7.91 C26 7.5, 28.79 6.37, 31.12 5.19 C33.44 4, 35.92 1.45, 36.93 0.81" stroke="#1e1e1e" stroke-width="1" fill="none"></path></g></g><mask></mask><g stroke-opacity="0" fill-opacity="0" stroke-linecap="round" transform="translate(895.1015625000002 270.4377446681644) rotate(0 58.37866158183556 58.378661581835615)"><path d="M84.64 7.14 C92.62 10.23, 100.85 17.06, 106.28 24.29 C111.71 31.51, 115.97 41.59, 117.22 50.49 C118.47 59.39, 117.18 69.22, 113.78 77.7 C110.38 86.17, 103.57 95.11, 96.83 101.35 C90.08 107.59, 81.93 112.77, 73.31 115.14 C64.7 117.51, 54.1 117.76, 45.14 115.55 C36.18 113.34, 26.51 107.88, 19.55 101.87 C12.58 95.87, 6.38 87.71, 3.33 79.51 C0.28 71.31, 0 61.52, 1.26 52.67 C2.51 43.82, 6.07 34.1, 10.85 26.42 C15.62 18.74, 22.27 11.05, 29.92 6.61 C37.57 2.17, 46.76 -0.51, 56.75 -0.22 C66.75 0.07, 83.68 5.96, 89.88 8.34 C96.08 10.72, 94.56 13.19, 93.96 14.06 M67.79 1.27 C76.19 1.74, 85.98 5.34, 93.11 10.92 C100.25 16.5, 106.58 26.27, 110.58 34.77 C114.58 43.27, 117.26 52.88, 117.12 61.91 C116.98 70.94, 114.12 81.11, 109.74 88.96 C105.35 96.8, 98.5 104.56, 90.81 109 C83.11 113.44, 72.68 115.04, 63.57 115.57 C54.47 116.11, 44.57 115.73, 36.16 112.21 C27.74 108.69, 18.81 101.46, 13.09 94.46 C7.38 87.45, 3.76 78.72, 1.87 70.16 C-0.02 61.61, -0.79 51.93, 1.73 43.12 C4.26 34.3, 10.44 23.83, 17.01 17.27 C23.58 10.71, 32.58 6.44, 41.15 3.78 C49.72 1.12, 63.91 1.46, 68.44 1.3 C72.97 1.15, 68.41 2.14, 68.32 2.85" stroke="#1e1e1e" stroke-width="1" fill="none"></path></g><g transform="translate(849.3903040378902 347.174231866106) rotate(0 104.08992004394531 12.5)"><text x="104.08992004394531" y="0" font-family="Virgil, Segoe UI Emoji" font-size="20px" fill="#1e1e1e" text-anchor="middle" style="white-space: pre;" direction="ltr" dominant-baseline="text-before-edge">Management Canister</text></g><g stroke-linecap="round"><g transform="translate(928.567408554976 303.5137363818022) rotate(0 21.451646467987985 11.061600613996617)"><path d="M-0.12 -0.24 C-0.15 4.41, 0.73 22.84, 0.96 28.66 C1.19 34.47, 0.21 32.95, 1.27 34.63 C2.33 36.3, 5.06 37.86, 7.32 38.7 C9.59 39.54, 11.75 39.35, 14.85 39.67 C17.94 39.99, 22.46 41.1, 25.89 40.61 C29.33 40.12, 32.86 38.22, 35.45 36.72 C38.04 35.22, 40.41 33.34, 41.42 31.63 C42.43 29.91, 41.34 29.76, 41.51 26.43 C41.69 23.11, 42.12 16.86, 42.46 11.67 C42.81 6.48, 43.45 -0.7, 43.59 -4.72 C43.72 -8.74, 44.34 -10.45, 43.26 -12.44 C42.19 -14.42, 39.94 -15.61, 37.13 -16.62 C34.33 -17.64, 30.3 -18.23, 26.43 -18.51 C22.57 -18.78, 17.25 -18.63, 13.95 -18.29 C10.64 -17.94, 8.86 -17.56, 6.6 -16.42 C4.34 -15.29, 1.36 -13.06, 0.39 -11.48 C-0.57 -9.89, 0.88 -8.9, 0.8 -6.93 C0.73 -4.95, 0.14 -0.64, -0.05 0.4 M-1.64 -1.41 C-1.85 2.8, 0.19 21, 0.51 26.72 C0.84 32.44, -0.85 31.28, 0.31 32.91 C1.48 34.53, 4.79 35.38, 7.51 36.49 C10.23 37.59, 13.34 39, 16.61 39.54 C19.89 40.07, 23.89 40.41, 27.17 39.71 C30.44 39.02, 34.02 36.85, 36.26 35.37 C38.5 33.89, 39.46 32.04, 40.59 30.85 C41.73 29.66, 42.65 31.42, 43.06 28.25 C43.47 25.07, 42.86 17.64, 43.06 11.79 C43.26 5.95, 44.41 -2.62, 44.27 -6.8 C44.12 -10.98, 43.41 -12.02, 42.21 -13.27 C41.02 -14.53, 39.86 -13.43, 37.09 -14.33 C34.32 -15.23, 29.48 -17.94, 25.59 -18.68 C21.69 -19.42, 17.26 -19.31, 13.72 -18.77 C10.18 -18.23, 6.22 -16.81, 4.34 -15.44 C2.46 -14.06, 3.17 -11.97, 2.43 -10.52 C1.69 -9.07, 0.53 -8.62, -0.12 -6.72 C-0.77 -4.82, -1.48 -0.4, -1.47 0.86" stroke="#1e1e1e" stroke-width="1" fill="none"></path></g></g><mask></mask><g stroke-linecap="round"><g transform="translate(928.8957500825475 293.72564999502487) rotate(0 21.396922880059492 4.432610622211811)"><path d="M0.44 0.16 C1.19 1.13, 1.97 4.24, 4.43 5.69 C6.88 7.13, 11.54 8.39, 15.16 8.84 C18.77 9.29, 22.59 8.87, 26.12 8.41 C29.65 7.94, 33.52 7.25, 36.33 6.04 C39.13 4.82, 41.83 1.98, 42.94 1.09 M0 -0.23 C0.67 0.61, 1.45 3.64, 3.91 5 C6.37 6.36, 11.09 7.32, 14.78 7.93 C18.47 8.54, 22.29 8.95, 26.04 8.67 C29.79 8.4, 34.6 7.62, 37.26 6.28 C39.92 4.93, 40.98 1.4, 41.99 0.62" stroke="#1e1e1e" stroke-width="1" fill="none"></path></g></g><mask></mask><g stroke-linecap="round"><g transform="translate(928.5443496336391 302.98893014355707) rotate(0 21.396922880059492 4.432610622211811)"><path d="M-0.17 0.54 C0.51 1.42, 2.04 4.19, 4.54 5.45 C7.04 6.7, 11.21 7.49, 14.84 8.08 C18.48 8.67, 22.74 9.35, 26.37 8.99 C29.99 8.63, 33.82 7.29, 36.59 5.91 C39.36 4.53, 42 1.58, 42.97 0.71 M0.75 0.35 C1.32 1.05, 1.55 3.29, 4.08 4.64 C6.62 5.98, 12.25 7.62, 15.97 8.44 C19.69 9.26, 23.08 9.95, 26.42 9.56 C29.75 9.16, 33.39 7.39, 36 6.08 C38.6 4.77, 40.95 2.47, 42.03 1.71" stroke="#1e1e1e" stroke-width="1" fill="none"></path></g></g><mask></mask><g stroke-linecap="round"><g transform="translate(928.2435294930904 309.70017525114434) rotate(0 21.396922880059492 4.432610622211811)"><path d="M-0.05 0.3 C0.68 0.99, 1.7 3.29, 4.23 4.69 C6.75 6.08, 11.36 7.97, 15.09 8.66 C18.83 9.36, 23.04 9.38, 26.63 8.86 C30.22 8.34, 33.99 6.89, 36.62 5.53 C39.25 4.17, 41.4 1.35, 42.41 0.69 M-0.75 -0.02 C0.18 0.96, 2.7 3.59, 5.27 5.15 C7.84 6.71, 11.09 8.62, 14.68 9.33 C18.27 10.03, 23.26 10, 26.82 9.36 C30.38 8.73, 33.37 6.79, 36.04 5.51 C38.71 4.23, 41.71 2.39, 42.85 1.67" stroke="#1e1e1e" stroke-width="1" fill="none"></path></g></g><mask></mask><g stroke-linecap="round"><g transform="translate(237.53881783183556 268.5234375) rotate(0 131.373046875 32.45703125)"><path d="M-0.62 -1.11 C43.07 9.61, 219.08 54.4, 263.05 65.21 M1.26 0.92 C44.73 11.18, 218.7 52.66, 262.27 63.25" stroke="#1e1e1e" stroke-width="2" fill="none"></path></g><g transform="translate(237.53881783183556 268.5234375) rotate(0 131.373046875 32.45703125)"><path d="M237.43 66.07 C244.95 65.64, 256.69 64.8, 262.27 63.25 M237.43 66.07 C242.31 64.83, 248.37 64.35, 262.27 63.25" stroke="#1e1e1e" stroke-width="2" fill="none"></path></g><g transform="translate(237.53881783183556 268.5234375) rotate(0 131.373046875 32.45703125)"><path d="M241.42 49.44 C247.55 55.28, 257.79 60.73, 262.27 63.25 M241.42 49.44 C245.36 51.59, 250.61 54.49, 262.27 63.25" stroke="#1e1e1e" stroke-width="2" fill="none"></path></g></g><mask></mask><g transform="translate(317.92944283183556 266.27734375) rotate(0 63.48020935058594 7.689453125)"><text x="0" y="0" font-family="Virgil, Segoe UI Emoji" font-size="12.303124999999994px" fill="#1e1e1e" text-anchor="start" style="white-space: pre;" direction="ltr" dominant-baseline="text-before-edge">get payment address</text></g><g stroke-linecap="round"><g transform="translate(237.07854206334696 201.09439490959045) rotate(0 127.203125 -34.71484375)"><path d="M-0.98 0.88 C41.42 -10.64, 210.9 -56.95, 253.32 -68.83 M0.7 0.29 C43.56 -11.61, 212.91 -58.99, 255.47 -70.64" stroke="#1e1e1e" stroke-width="2" fill="none"></path></g><g transform="translate(237.07854206334696 201.09439490959045) rotate(0 127.203125 -34.71484375)"><path d="M235.11 -56.12 C240.75 -60.76, 244.49 -63.33, 255.47 -70.64 M235.11 -56.12 C238.85 -59.98, 243.67 -62.99, 255.47 -70.64" stroke="#1e1e1e" stroke-width="2" fill="none"></path></g><g transform="translate(237.07854206334696 201.09439490959045) rotate(0 127.203125 -34.71484375)"><path d="M230.55 -72.6 C237.16 -73.8, 241.85 -72.96, 255.47 -70.64 M230.55 -72.6 C235.24 -72.85, 241.07 -72.22, 255.47 -70.64" stroke="#1e1e1e" stroke-width="2" fill="none"></path></g></g><mask></mask><g transform="translate(301.930128793671 145.46808662184958) rotate(344.33939084219884 44.150794982910156 7.689453125)"><text x="0" y="0" font-family="Virgil, Segoe UI Emoji" font-size="12.303124999999994px" fill="#1e1e1e" text-anchor="start" style="white-space: pre;" direction="ltr" dominant-baseline="text-before-edge">fetch frontend</text></g><g stroke-opacity="0" fill-opacity="0" stroke-linecap="round" transform="translate(379.14453125 486.7580571681644) rotate(0 58.378661581835615 58.37866158183559)"><path d="M36.13 4.38 C43.66 0.09, 53.49 -0.78, 62.43 -0.1 C71.37 0.57, 82.08 3.71, 89.77 8.42 C97.46 13.14, 104.09 20.34, 108.55 28.2 C113.01 36.06, 116.03 46.38, 116.51 55.59 C116.99 64.79, 115.31 75.06, 111.41 83.43 C107.52 91.79, 100.54 100.23, 93.17 105.76 C85.8 111.29, 76.19 115.16, 67.2 116.59 C58.21 118.01, 47.83 117.14, 39.23 114.31 C30.64 111.48, 21.9 106.22, 15.64 99.62 C9.37 93.02, 3.94 83.35, 1.62 74.72 C-0.7 66.08, -0.13 56.73, 1.72 47.8 C3.56 38.88, 6.24 28.62, 12.7 21.16 C19.16 13.7, 35.01 6.28, 40.48 3.04 C45.94 -0.21, 45.18 0.83, 45.5 1.69 M64.72 0.39 C73.44 0.83, 84.73 6.13, 92.42 11.52 C100.11 16.92, 106.75 24.99, 110.85 32.76 C114.95 40.53, 117.29 49.19, 117 58.12 C116.72 67.04, 113.29 78.2, 109.14 86.3 C104.99 94.4, 99.64 101.86, 92.09 106.69 C84.54 111.52, 72.93 114.34, 63.84 115.28 C54.75 116.21, 45.67 115.46, 37.55 112.28 C29.43 109.11, 20.93 102.9, 15.13 96.22 C9.33 89.54, 4.84 80.8, 2.76 72.21 C0.68 63.62, 0.72 53.62, 2.65 44.69 C4.58 35.77, 8.66 25.48, 14.34 18.64 C20.01 11.79, 28.33 6.72, 36.69 3.63 C45.06 0.53, 59.71 0.51, 64.55 0.07 C69.38 -0.37, 65.76 -0.29, 65.68 0.98" stroke="#1e1e1e" stroke-width="1" fill="none"></path></g><g transform="translate(351.9832834690426 569.7093402458697) rotate(0 85.53990936279297 12.500000000000028)"><text x="85.53990936279297" y="0" font-family="Virgil, Segoe UI Emoji" font-size="20px" fill="#1e1e1e" text-anchor="middle" style="white-space: pre;" direction="ltr" dominant-baseline="text-before-edge">bitcoind (regtest)</text></g><g stroke-linecap="round" transform="translate(418.88901283335804 495.5640972541302) rotate(0 18.63417999847718 34.78380266382396)"><path d="M0 0 C9.69 -0.84, 15.31 -0.71, 37.27 0 M0 0 C11.47 -0.08, 24.37 0.35, 37.27 0 M37.27 0 C35.62 23.13, 35.4 44.85, 37.27 69.57 M37.27 0 C37.71 16.29, 38.72 31.09, 37.27 69.57 M37.27 69.57 C26.1 68.1, 17.91 69.34, 0 69.57 M37.27 69.57 C24.37 69.46, 13.34 70.14, 0 69.57 M0 69.57 C-1.46 45.07, 0.01 23.71, 0 0 M0 69.57 C0.72 48.28, 1.02 27.33, 0 0" stroke="#1e1e1e" stroke-width="1" fill="none"></path></g><g stroke-linecap="round"><g transform="translate(423.660755698372 503.2600479200858) rotate(0 14.286204665499099 1.1368683772161603e-13)"><path d="M-0.19 -0.28 C4.51 -0.32, 23.67 0.15, 28.42 0.17 M0.71 0.77 C5.31 0.52, 23.4 -0.64, 27.91 -0.71" stroke="#1e1e1e" stroke-width="1" fill="none"></path></g></g><mask></mask><g stroke-linecap="round"><g transform="translate(422.7488529996001 509.66384569769417) rotate(0 14.286204665499099 1.1368683772161603e-13)"><path d="M-0.15 0.17 C4.59 0.19, 23.57 -0.13, 28.28 -0.17 M0.77 -0.22 C5.71 -0.1, 24.63 0.33, 29.36 0.44" stroke="#1e1e1e" stroke-width="1" fill="none"></path></g></g><mask></mask><g stroke-linecap="round"><g transform="translate(422.8750888758325 516.0676434753034) rotate(0 14.286204665499099 1.1368683772161603e-13)"><path d="M-0.3 -0.17 C4.41 -0.22, 23.31 -0.16, 28.1 -0.11 M0.55 -0.74 C5.44 -0.71, 24.52 0.28, 29.09 0.54" stroke="#1e1e1e" stroke-width="1" fill="none"></path></g></g><mask></mask><g stroke-linecap="round"><g transform="translate(422.78955350706224 522.4714412529122) rotate(0 14.286204665499099 1.1368683772161603e-13)"><path d="M-0.47 -0.11 C4.31 -0.06, 23.55 0.15, 28.41 0.13 M0.28 -0.64 C5.01 -0.75, 23.22 -0.92, 27.89 -0.77" stroke="#1e1e1e" stroke-width="1" fill="none"></path></g></g><mask></mask><g stroke-linecap="round" transform="translate(444.3302624532515 529.3996669489627) rotate(0 3.320581637643386 2.414968463740564)"><path d="M3.17 0.2 C3.83 0.17, 4.72 0.43, 5.25 0.77 C5.78 1.12, 6.25 1.81, 6.36 2.29 C6.47 2.77, 6.21 3.2, 5.91 3.66 C5.61 4.12, 5.22 4.88, 4.57 5.02 C3.91 5.17, 2.69 4.76, 1.99 4.53 C1.28 4.3, 0.72 4.13, 0.36 3.66 C0 3.18, -0.33 2.21, -0.18 1.68 C-0.04 1.14, 0.62 0.75, 1.25 0.47 C1.87 0.19, 3.18 0.11, 3.55 -0.01 C3.93 -0.12, 3.5 -0.26, 3.48 -0.2 M3.75 -0.22 C4.35 -0.24, 4.93 0.46, 5.47 0.87 C6 1.28, 6.91 1.82, 6.94 2.25 C6.96 2.68, 6.08 3.07, 5.63 3.46 C5.18 3.85, 4.81 4.43, 4.22 4.58 C3.64 4.74, 2.71 4.59, 2.12 4.41 C1.53 4.23, 0.96 3.9, 0.68 3.5 C0.39 3.1, 0.31 2.54, 0.41 1.99 C0.5 1.44, 0.78 0.51, 1.25 0.18 C1.71 -0.15, 2.87 0.05, 3.2 0.01 C3.53 -0.03, 3.15 -0.08, 3.22 -0.08" stroke="#1e1e1e" stroke-width="1" fill="none"></path></g><g stroke-opacity="0" fill-opacity="0" stroke-linecap="round" transform="translate(137.17578125 481.74633841816444) rotate(0 58.378661581835615 58.378661581835615)"><path d="M68.86 2.02 C77.33 2.64, 86.99 6.83, 94.28 12.51 C101.57 18.2, 108.93 27.71, 112.59 36.14 C116.26 44.56, 117.05 54.25, 116.28 63.06 C115.51 71.87, 112.69 81.45, 107.98 89 C103.27 96.54, 95.8 103.63, 88.02 108.33 C80.23 113.03, 70.37 116.55, 61.28 117.2 C52.19 117.85, 41.86 115.99, 33.49 112.21 C25.12 108.44, 16.47 102.03, 11.07 94.55 C5.66 87.08, 2.35 76.36, 1.05 67.36 C-0.25 58.36, 0.6 48.93, 3.25 40.54 C5.91 32.16, 10.44 23.29, 16.97 17.06 C23.5 10.84, 32.53 5.54, 42.44 3.2 C52.34 0.86, 69.47 2.31, 76.4 3 C83.33 3.7, 84.11 6.51, 84.01 7.38 M65.49 0.64 C74.06 0.84, 85.72 4.95, 93.49 10.14 C101.26 15.32, 108.23 23.55, 112.09 31.76 C115.96 39.96, 116.95 50.17, 116.71 59.37 C116.47 68.56, 115.1 79.18, 110.65 86.93 C106.2 94.69, 97.82 100.79, 90.01 105.91 C82.2 111.02, 72.55 116.55, 63.78 117.61 C55.01 118.67, 45.71 115.96, 37.39 112.28 C29.07 108.59, 19.95 102.22, 13.86 95.51 C7.77 88.8, 2.66 80.64, 0.87 72.01 C-0.93 63.39, 0.72 52.49, 3.1 43.74 C5.48 34.98, 9.15 26.2, 15.14 19.48 C21.14 12.77, 30.48 6.38, 39.06 3.44 C47.63 0.5, 62.11 1.96, 66.6 1.85 C71.09 1.73, 66.21 1.76, 66 2.75" stroke="#1e1e1e" stroke-width="1" fill="none"></path></g><g transform="translate(180.02445931132775 564.5569964958697) rotate(0 15.529983520507812 12.5)"><text x="15.529983520507812" y="0" font-family="Virgil, Segoe UI Emoji" font-size="20px" fill="#1e1e1e" text-anchor="middle" style="white-space: pre;" direction="ltr" dominant-baseline="text-before-edge">ord</text></g><g stroke-linecap="round" transform="translate(176.92026283335804 490.4117535041303) rotate(0 18.63417999847718 34.78380266382396)"><path d="M0 0 C10.92 1.53, 23.77 -1.15, 37.27 0 M0 0 C13.91 0.19, 26.87 0.26, 37.27 0 M37.27 0 C37.05 19.75, 35.71 37.37, 37.27 69.57 M37.27 0 C37.09 21.82, 37.31 45.71, 37.27 69.57 M37.27 69.57 C23.35 69.93, 9.9 68.62, 0 69.57 M37.27 69.57 C24.01 69.6, 13.16 68.86, 0 69.57 M0 69.57 C-0.35 44.36, 0.48 15.3, 0 0 M0 69.57 C0.82 55.05, 0.17 40.42, 0 0" stroke="#1e1e1e" stroke-width="1" fill="none"></path></g><g stroke-linecap="round"><g transform="translate(181.692005698372 498.10770417008575) rotate(0 14.286204665499099 1.1368683772161603e-13)"><path d="M0.5 -0.41 C5.15 -0.28, 23.57 0.31, 28.34 0.35 M0.09 0.56 C4.62 0.59, 22.96 -0.39, 27.78 -0.43" stroke="#1e1e1e" stroke-width="1" fill="none"></path></g></g><mask></mask><g stroke-linecap="round"><g transform="translate(180.7801029996001 504.5115019476941) rotate(0 14.286204665499099 1.1368683772161603e-13)"><path d="M-0.24 0.35 C4.53 0.39, 24.27 -0.12, 29.1 -0.17 M0.64 0.06 C5.34 0.21, 24.3 0.34, 28.94 0.44" stroke="#1e1e1e" stroke-width="1" fill="none"></path></g></g><mask></mask><g stroke-linecap="round"><g transform="translate(180.9063388758325 510.9152997253034) rotate(0 14.286204665499099 1.1368683772161603e-13)"><path d="M0.53 -0.17 C5.36 -0.22, 24.11 0, 28.75 0.04 M0.13 -0.74 C4.93 -0.72, 23.77 0.52, 28.42 0.76" stroke="#1e1e1e" stroke-width="1" fill="none"></path></g></g><mask></mask><g stroke-linecap="round"><g transform="translate(180.82080350706224 517.3190975029122) rotate(0 14.286204665499099 1.1368683772161603e-13)"><path d="M0.18 0.04 C4.83 0.08, 23.72 0.07, 28.41 0.08 M-0.39 -0.41 C4.13 -0.26, 23.19 0.63, 27.9 0.82" stroke="#1e1e1e" stroke-width="1" fill="none"></path></g></g><mask></mask><g stroke-linecap="round" transform="translate(202.3615124532514 524.2473231989627) rotate(0 3.320581637643386 2.414968463740564)"><path d="M3.02 0.32 C3.63 0.27, 4.38 0.52, 4.98 0.73 C5.58 0.94, 6.38 1.11, 6.62 1.59 C6.86 2.06, 6.79 3.04, 6.43 3.58 C6.06 4.11, 5.07 4.56, 4.44 4.8 C3.8 5.04, 3.31 5.18, 2.62 5 C1.93 4.82, 0.72 4.19, 0.29 3.73 C-0.13 3.27, -0.09 2.77, 0.06 2.24 C0.2 1.7, 0.63 0.87, 1.16 0.53 C1.69 0.2, 2.9 0.36, 3.24 0.23 C3.59 0.09, 3.25 -0.31, 3.23 -0.28 M2.9 -0.17 C3.57 -0.21, 4.98 0.17, 5.57 0.41 C6.15 0.64, 6.29 0.69, 6.42 1.25 C6.55 1.8, 6.55 3.18, 6.35 3.73 C6.15 4.28, 5.84 4.38, 5.22 4.53 C4.6 4.68, 3.43 4.68, 2.64 4.63 C1.86 4.59, 0.89 4.61, 0.51 4.26 C0.13 3.92, 0.31 3.1, 0.34 2.57 C0.37 2.04, 0.27 1.51, 0.69 1.09 C1.12 0.68, 2.53 0.18, 2.88 0.08 C3.24 -0.03, 2.83 0.39, 2.8 0.47" stroke="#1e1e1e" stroke-width="1" fill="none"></path></g><g stroke-linecap="round"><g transform="translate(235.5144361967831 297.12865343202384) rotate(0 42.66104531892563 46.70167042080999)"><path d="M-1.14 0.28 C12.79 15.91, 69.92 78.7, 84.28 94.18 M0.46 -0.62 C14.7 14.64, 72.51 76.64, 86.45 92.46" stroke="#1e1e1e" stroke-width="2" fill="none"></path></g></g><mask></mask><g transform="translate(164.11528210966117 401.4686920667357) rotate(0 64.9039535522461 10)"><text x="0" y="0" font-family="Virgil, Segoe UI Emoji" font-size="16px" fill="#1e1e1e" text-anchor="start" style="white-space: pre;" direction="ltr" dominant-baseline="text-before-edge">send to address</text></g><g transform="translate(165.36995813167232 429.3883072071095) rotate(0 61.023963928222656 10)"><text x="0" y="0" font-family="Virgil, Segoe UI Emoji" font-size="16px" fill="#1e1e1e" text-anchor="start" style="white-space: pre;" direction="ltr" dominant-baseline="text-before-edge">generate blocks</text></g><g transform="translate(837.4645990818356 111.42578125) rotate(0 103.94393157958984 20)"><text x="0" y="0" font-family="Virgil, Segoe UI Emoji" font-size="16px" fill="#1e1e1e" text-anchor="start" style="white-space: pre;" direction="ltr" dominant-baseline="text-before-edge">Creates private key from </text><text x="0" y="20" font-family="Virgil, Segoe UI Emoji" font-size="16px" fill="#1e1e1e" text-anchor="start" style="white-space: pre;" direction="ltr" dominant-baseline="text-before-edge">ICP randomness</text></g><g stroke-linecap="round" transform="translate(431.53100533183556 37.45703125) rotate(0 354.796875 205.310546875)"><path d="M32 0 C199.93 -0.92, 368.02 0.2, 677.59 0 M677.59 0 C699.86 -0.22, 709.25 10.79, 709.59 32 M709.59 32 C708.21 170.44, 709.22 307.66, 709.59 378.62 M709.59 378.62 C709.87 399.09, 700.92 411.4, 677.59 410.62 M677.59 410.62 C545 409.14, 414.38 409.01, 32 410.62 M32 410.62 C11.33 412.28, 0.52 400.38, 0 378.62 M0 378.62 C-2.07 280.6, -2.34 184.65, 0 32 M0 32 C-1.09 10.58, 12.42 1.54, 32 0" stroke="#1e1e1e" stroke-width="2.5" fill="none" stroke-dasharray="8 10"></path></g><g stroke-linecap="round"><g transform="translate(827.2653803318356 167.1953125) rotate(0 -8.9765625 7.783203125)"><path d="M0.42 -0.63 C-2.6 2.01, -14.6 12.68, -17.62 15.52 M-0.82 1.66 C-4.02 4.53, -15.48 14.9, -18.4 17.04" stroke="#1e1e1e" stroke-width="2" fill="none"></path></g></g><mask></mask><g stroke-linecap="round" transform="translate(673.0427240818356 427.26953125) rotate(0 111.666015625 18.984375)"><path d="M9.49 0 C62.35 -2.02, 108.38 0.44, 213.84 0 C217.35 1.66, 226.69 0.77, 223.33 9.49 C226.13 14.77, 225.81 22.45, 223.33 28.48 C226.46 33.97, 221.71 35.76, 213.84 37.97 C141.57 39.19, 74.75 37.7, 9.49 37.97 C5.55 39.5, -1.99 34.61, 0 28.48 C3.32 24.07, 2.62 22.13, 0 9.49 C-0.67 3.02, 4.14 -3.26, 9.49 0" stroke="none" stroke-width="0" fill="#eaddd7"></path><path d="M9.49 0 C65.04 2.78, 120.29 2.15, 213.84 0 M9.49 0 C77.81 0.04, 145.03 -0.35, 213.84 0 M213.84 0 C220.78 0.42, 221.51 5.07, 223.33 9.49 M213.84 0 C218.53 1.2, 223.77 1.03, 223.33 9.49 M223.33 9.49 C222.13 17.88, 225.01 23.58, 223.33 28.48 M223.33 9.49 C222.55 13.5, 223 20.02, 223.33 28.48 M223.33 28.48 C223.79 35.35, 221.92 37.65, 213.84 37.97 M223.33 28.48 C224.2 32.85, 220.63 39.48, 213.84 37.97 M213.84 37.97 C149.76 36.36, 86.45 39, 9.49 37.97 M213.84 37.97 C144.37 39.14, 72.9 39.4, 9.49 37.97 M9.49 37.97 C2.56 36.97, 0.5 36, 0 28.48 M9.49 37.97 C2.94 37.28, 1.12 35.68, 0 28.48 M0 28.48 C1.17 20.28, -1.43 16.1, 0 9.49 M0 28.48 C-0.41 23.23, 0.51 16.23, 0 9.49 M0 9.49 C0.95 3.01, 3.46 1.58, 9.49 0 M0 9.49 C0.12 3.65, 4.42 -0.72, 9.49 0" stroke="#1e1e1e" stroke-width="2" fill="none"></path></g><g transform="translate(707.9088053196285 433.75390625) rotate(0 76.79993438720703 12.5)"><text x="76.79993438720703" y="0" font-family="Virgil, Segoe UI Emoji" font-size="20px" fill="#1e1e1e" text-anchor="middle" style="white-space: pre;" direction="ltr" dominant-baseline="text-before-edge">Bitcoin Adapter</text></g><g stroke-linecap="round"><g transform="translate(932.0096711379645 373.174231866106) rotate(0 -39.773049426073385 24.817180941946987)"><path d="M0.73 -0.73 C-12.74 7.57, -66.89 42.58, -80.13 50.82 M-0.35 1.5 C-13.48 10.02, -64.6 41.31, -77.72 49.31" stroke="#1e1e1e" stroke-width="2" fill="none"></path></g><g transform="translate(932.0096711379645 373.174231866106) rotate(0 -39.773049426073385 24.817180941946987)"><path d="M-14.48 19.12 C-10.44 10.98, -1.84 6.22, 0.73 -0.73 M-14.48 19.12 C-11.59 14.18, -7.58 11.18, 0.73 -0.73" stroke="#1e1e1e" stroke-width="2" fill="none"></path></g><g transform="translate(932.0096711379645 373.174231866106) rotate(0 -39.773049426073385 24.817180941946987)"><path d="M-23.68 4.7 C-16.24 1.64, -4.36 2.02, 0.73 -0.73 M-23.68 4.7 C-18.73 3.05, -12.67 3.26, 0.73 -0.73" stroke="#1e1e1e" stroke-width="2" fill="none"></path></g><g transform="translate(932.0096711379645 373.174231866106) rotate(0 -39.773049426073385 24.817180941946987)"><path d="M-62.15 29.76 C-68.75 35.85, -71.12 45.14, -77.72 49.31 M-62.15 29.76 C-66.11 33.38, -68.97 39.17, -77.72 49.31" stroke="#1e1e1e" stroke-width="2" fill="none"></path></g><g transform="translate(932.0096711379645 373.174231866106) rotate(0 -39.773049426073385 24.817180941946987)"><path d="M-53.22 44.35 C-63.13 45.29, -68.68 49.38, -77.72 49.31 M-53.22 44.35 C-59.18 44.65, -64.03 47.18, -77.72 49.31" stroke="#1e1e1e" stroke-width="2" fill="none"></path></g></g><mask></mask><g stroke-linecap="round"><g transform="translate(665.3766589774953 473.1015169643797) rotate(0 -91.607421875 29.45703125)"><path d="M-0.93 0.51 C-31.47 10.39, -152.78 48.89, -183.28 58.72 M0.79 -0.27 C-29.91 9.85, -153.28 50.54, -184.26 60.16" stroke="#1e1e1e" stroke-width="2" fill="none"></path></g><g transform="translate(665.3766589774953 473.1015169643797) rotate(0 -91.607421875 29.45703125)"><path d="M-20.71 15.8 C-13.94 11.33, -9.27 5.75, -0.93 0.51 M-20.71 15.8 C-14.23 10.85, -7.04 4.49, -0.93 0.51" stroke="#1e1e1e" stroke-width="2" fill="none"></path></g><g transform="translate(665.3766589774953 473.1015169643797) rotate(0 -91.607421875 29.45703125)"><path d="M-25.91 -0.5 C-17.69 -0.11, -11.47 -0.87, -0.93 0.51 M-25.91 -0.5 C-17.52 0.21, -8.51 -0.46, -0.93 0.51" stroke="#1e1e1e" stroke-width="2" fill="none"></path></g><g transform="translate(665.3766589774953 473.1015169643797) rotate(0 -91.607421875 29.45703125)"><path d="M-164.51 44.83 C-169.57 49.1, -176.57 52.57, -184.26 60.16 M-164.51 44.83 C-171.68 50.94, -178.31 55.28, -184.26 60.16" stroke="#1e1e1e" stroke-width="2" fill="none"></path></g><g transform="translate(665.3766589774953 473.1015169643797) rotate(0 -91.607421875 29.45703125)"><path d="M-159.27 61.11 C-165.8 60.53, -174.35 59.19, -184.26 60.16 M-159.27 61.11 C-168.37 61.57, -176.82 60.22, -184.26 60.16" stroke="#1e1e1e" stroke-width="2" fill="none"></path></g></g><mask></mask><g stroke-linecap="round"><g transform="translate(401.3560586969264 539.2971581759956) rotate(0 -84.57421875 0.880859375)"><path d="M0.71 -0.22 C-27.56 -0.06, -141.82 1.1, -170.18 1.62 M-0.38 -1.39 C-28.23 -1.08, -139.68 2.66, -168.01 3.08" stroke="#1e1e1e" stroke-width="2" fill="none"></path></g><g transform="translate(401.3560586969264 539.2971581759956) rotate(0 -84.57421875 0.880859375)"><path d="M-22.7 8.56 C-17.25 4.5, -11.26 3.5, 0.71 -0.22 M-22.7 8.56 C-13 4.49, -5.34 2.13, 0.71 -0.22" stroke="#1e1e1e" stroke-width="2" fill="none"></path></g><g transform="translate(401.3560586969264 539.2971581759956) rotate(0 -84.57421875 0.880859375)"><path d="M-22.87 -8.54 C-17.29 -8.32, -11.25 -5.04, 0.71 -0.22 M-22.87 -8.54 C-12.94 -5.89, -5.21 -1.51, 0.71 -0.22" stroke="#1e1e1e" stroke-width="2" fill="none"></path></g><g transform="translate(401.3560586969264 539.2971581759956) rotate(0 -84.57421875 0.880859375)"><path d="M-144.74 -6.06 C-150.89 -5.35, -156.58 -1.86, -168.01 3.08 M-144.74 -6.06 C-153.24 -3.39, -163.94 1.3, -168.01 3.08" stroke="#1e1e1e" stroke-width="2" fill="none"></path></g><g transform="translate(401.3560586969264 539.2971581759956) rotate(0 -84.57421875 0.880859375)"><path d="M-144.31 11.04 C-150.66 7.47, -156.46 6.67, -168.01 3.08 M-144.31 11.04 C-153.14 6.97, -164.01 4.94, -168.01 3.08" stroke="#1e1e1e" stroke-width="2" fill="none"></path></g></g><mask></mask><g stroke-linecap="round"><g transform="translate(575.559010813347 324.78970740959045) rotate(0 90.072265625 -54.58984375)"><path d="M0.05 -1 C29.89 -19.1, 149.36 -91.01, 179.33 -109.05 M-1.38 1.09 C28.81 -16.75, 151.56 -89.27, 181.61 -107.45" stroke="#1e1e1e" stroke-width="2" fill="none"></path></g><g transform="translate(575.559010813347 324.78970740959045) rotate(0 90.072265625 -54.58984375)"><path d="M165.82 -88.07 C169.34 -95.72, 176.34 -101.14, 181.61 -107.45 M165.82 -88.07 C170.51 -93.26, 175.72 -100.16, 181.61 -107.45" stroke="#1e1e1e" stroke-width="2" fill="none"></path></g><g transform="translate(575.559010813347 324.78970740959045) rotate(0 90.072265625 -54.58984375)"><path d="M157.05 -102.75 C163.36 -105.65, 173.2 -106.31, 181.61 -107.45 M157.05 -102.75 C164.34 -103.56, 172.11 -106.17, 181.61 -107.45" stroke="#1e1e1e" stroke-width="2" fill="none"></path></g></g><mask></mask><g transform="translate(550.7067865818356 247.0390625) rotate(0 58.7109375 6.0147545630617)"><text x="0" y="0" font-family="Cascadia, Segoe UI Emoji" font-size="10.024590938436171px" fill="#1e1e1e" text-anchor="start" style="white-space: pre;" direction="ltr" dominant-baseline="text-before-edge">schnorr_public_key()</text></g><g transform="translate(528.2115854709957 265.4377556634774) rotate(0 55.775390625 6.0147545630617)"><text x="0" y="0" font-family="Cascadia, Segoe UI Emoji" font-size="10.024590938436171px" fill="#1e1e1e" text-anchor="start" style="white-space: pre;" direction="ltr" dominant-baseline="text-before-edge">sign_with_schnorr()</text></g><g stroke-linecap="round"><g transform="translate(578.8600448729924 331.9436942093959) rotate(0 167.462890625 0.294921875)"><path d="M0.22 -1.13 C56.03 -1.09, 280.17 0.71, 335.78 1.06 M-1.12 0.89 C54.53 0.5, 279.06 -0.47, 335.28 -0.82" stroke="#1e1e1e" stroke-width="2" fill="none"></path></g><g transform="translate(578.8600448729924 331.9436942093959) rotate(0 167.462890625 0.294921875)"><path d="M311.83 7.85 C318.73 5.96, 330.23 -0.51, 335.28 -0.82 M311.83 7.85 C318.81 5.36, 326.47 2.61, 335.28 -0.82" stroke="#1e1e1e" stroke-width="2" fill="none"></path></g><g transform="translate(578.8600448729924 331.9436942093959) rotate(0 167.462890625 0.294921875)"><path d="M311.74 -9.25 C318.79 -4.7, 330.32 -4.72, 335.28 -0.82 M311.74 -9.25 C318.83 -6.1, 326.51 -3.21, 335.28 -0.82" stroke="#1e1e1e" stroke-width="2" fill="none"></path></g></g><mask></mask><g transform="translate(641.0446772068356 312.0243079369383) rotate(0 49.904296875 6.0147545630617)"><text x="0" y="0" font-family="Cascadia, Segoe UI Emoji" font-size="10.024590938436171px" fill="#1e1e1e" text-anchor="start" style="white-space: pre;" direction="ltr" dominant-baseline="text-before-edge">sign_with_ecdsa()</text></g><g transform="translate(663.9743647068356 375.7782141869383) rotate(0 76.32421875 6.0147545630617)"><text x="0" y="0" font-family="Cascadia, Segoe UI Emoji" font-size="10.024590938436171px" fill="#1e1e1e" text-anchor="start" style="white-space: pre;" direction="ltr" dominant-baseline="text-before-edge">bitcoin_send_transaction()</text></g><g transform="translate(640.6032709568356 296.5633704369383) rotate(0 52.83984375 6.0147545630617)"><text x="0" y="0" font-family="Cascadia, Segoe UI Emoji" font-size="10.024590938436171px" fill="#1e1e1e" text-anchor="start" style="white-space: pre;" direction="ltr" dominant-baseline="text-before-edge">ecdsa_public_key()</text></g><g transform="translate(476.59350533183556 10) rotate(0 114.87992858886719 10)"><text x="0" y="0" font-family="Virgil, Segoe UI Emoji" font-size="16px" fill="#1e1e1e" text-anchor="start" style="white-space: pre;" direction="ltr" dominant-baseline="text-before-edge">ICP (Local Replica Instance)</text></g><g transform="translate(338.6836084812496 311.857421875) rotate(0 21.125221252441406 7.689453125)"><text x="0" y="0" font-family="Virgil, Segoe UI Emoji" font-size="12.303124999999994px" fill="#1e1e1e" text-anchor="start" style="white-space: pre;" direction="ltr" dominant-baseline="text-before-edge">inscribe</text></g><g transform="translate(663.5935053318356 340.9696204369382) rotate(0 61.646484375 6.0147545630617)"><text x="0" y="0" font-family="Cascadia, Segoe UI Emoji" font-size="10.024590938436171px" fill="#1e1e1e" text-anchor="start" style="white-space: pre;" direction="ltr" dominant-baseline="text-before-edge">bitcoin_get_balance()</text></g><g transform="translate(664.6813959568356 357.8211829369383) rotate(0 55.775390625 6.0147545630617)"><text x="0" y="0" font-family="Cascadia, Segoe UI Emoji" font-size="10.024590938436171px" fill="#1e1e1e" text-anchor="start" style="white-space: pre;" direction="ltr" dominant-baseline="text-before-edge">bitcoin_get_utxos()</text></g><g stroke-linecap="round" transform="translate(325.61396937816494 382.81991095340953) rotate(0 18.63417999847718 34.78380266382396)"><path d="M0 0 C14.79 -0.02, 25.77 -0.06, 37.27 0 M37.27 0 C38.72 22.08, 37.66 47.03, 37.27 69.57 M37.27 69.57 C23.85 71.3, 13.06 70.37, 0 69.57 M0 69.57 C0.1 48.3, -1.66 28.32, 0 0" stroke="#1e1e1e" stroke-width="1.5" fill="none" stroke-dasharray="8 9"></path></g><g stroke-linecap="round"><g transform="translate(330.3857122431789 390.51586161936524) rotate(0 14.286204665499099 1.1368683772161603e-13)"><path d="M0.05 -0.07 C4.77 -0.13, 23.77 0.19, 28.61 0.14" stroke="#1e1e1e" stroke-width="1.5" fill="none" stroke-dasharray="8 9"></path></g></g><mask></mask><g stroke-linecap="round"><g transform="translate(329.473809544407 396.9196593969736) rotate(0 14.286204665499099 1.1368683772161603e-13)"><path d="M0.04 0.14 C4.88 0.08, 24.31 -0.36, 29.1 -0.41" stroke="#1e1e1e" stroke-width="1.5" fill="none" stroke-dasharray="8 9"></path></g></g><mask></mask><g stroke-linecap="round"><g transform="translate(329.6000454206394 403.32345717458287) rotate(0 14.286204665499099 1.1368683772161603e-13)"><path d="M0.53 -0.41 C5.32 -0.45, 24.13 -0.3, 28.79 -0.15" stroke="#1e1e1e" stroke-width="1.5" fill="none" stroke-dasharray="8 9"></path></g></g><mask></mask><g stroke-linecap="round"><g transform="translate(329.51451005186914 409.7272549521917) rotate(0 14.286204665499099 1.1368683772161603e-13)"><path d="M0.22 -0.15 C4.88 0.01, 23.72 0.46, 28.49 0.5" stroke="#1e1e1e" stroke-width="1.5" fill="none" stroke-dasharray="8 9"></path></g></g><mask></mask><g stroke-linecap="round" transform="translate(351.0552189980583 416.65548064824196) rotate(0 3.320581637643386 2.414968463740564)"><path d="M3.51 0.32 C4.23 0.37, 5.42 0.48, 5.94 0.85 C6.45 1.21, 6.54 2, 6.61 2.51 C6.68 3.02, 6.78 3.57, 6.35 3.91 C5.93 4.26, 4.82 4.42, 4.08 4.58 C3.34 4.74, 2.52 5.06, 1.9 4.87 C1.28 4.69, 0.7 4.02, 0.35 3.46 C0 2.9, -0.43 2.03, -0.21 1.51 C0.01 1, 0.99 0.6, 1.65 0.35 C2.31 0.1, 3.38 0.04, 3.74 0.01 C4.1 -0.02, 3.76 0.13, 3.79 0.18" stroke="#1e1e1e" stroke-width="1.5" fill="none" stroke-dasharray="8 9"></path></g><g transform="translate(302.86865160963725 462.5917672435447) rotate(0 46.655967712402344 10)"><text x="0" y="0" font-family="Virgil, Segoe UI Emoji" font-size="16px" fill="#1e1e1e" text-anchor="start" style="white-space: pre;" direction="ltr" dominant-baseline="text-before-edge">CORS Proxy</text></g><g stroke-linecap="round"><g transform="translate(369.91096313740525 430.0605318783763) rotate(0 25.136824659248816 29.38574274329909)"><path d="M1.16 0.25 C9.42 9.82, 42.08 48.37, 50.07 57.97 M0.31 -0.66 C8.35 8.99, 40.51 49.2, 49.02 59.09" stroke="#1e1e1e" stroke-width="2" fill="none"></path></g><g transform="translate(369.91096313740525 430.0605318783763) rotate(0 25.136824659248816 29.38574274329909)"><path d="M27.47 46.42 C35.32 50.21, 40.94 52.92, 49.02 59.09 M27.47 46.42 C32.67 48.64, 36.1 52.06, 49.02 59.09" stroke="#1e1e1e" stroke-width="2" fill="none"></path></g><g transform="translate(369.91096313740525 430.0605318783763) rotate(0 25.136824659248816 29.38574274329909)"><path d="M40.65 35.53 C44.04 43.18, 45.15 49.61, 49.02 59.09 M40.65 35.53 C42.88 40.2, 43.35 46.06, 49.02 59.09" stroke="#1e1e1e" stroke-width="2" fill="none"></path></g></g><mask></mask></svg>