<svg version="1.1" xmlns="http://www.w3.org/2000/svg" viewBox="0 0 1163.6626475756293 279.499306679229" width="2327.3252951512586" height="558.998613358458" filter="invert(93%) hue-rotate(180deg)">
  <!-- svg-source:excalidraw -->
  
  <defs>
    <style class="style-fonts">
      @font-face {
        font-family: "Virgil";
        src: url("https://excalidraw.com/Virgil.woff2");
      }
      @font-face {
        font-family: "Cascadia";
        src: url("https://excalidraw.com/Cascadia.woff2");
      }
      @font-face {
        font-family: "Assistant";
        src: url("https://app.excalidraw.com//dist/excalidraw-assets/Assistant-Regular.woff2");
      }
    </style>
    
  </defs>
  <rect x="0" y="0" width="1163.6626475756293" height="279.499306679229" fill="#ffffff"></rect><g stroke-linecap="round" transform="translate(104.08192384895642 71.19143231161604) rotate(0 159.8694539194645 99.15393718380648)"><path d="M32 0 C84.77 1.67, 137.55 3.71, 287.74 0 C306.98 0.92, 317.55 9.17, 319.74 32 C317.95 80.59, 318.64 128.51, 319.74 166.31 C318.68 190.23, 309.02 195.08, 287.74 198.31 C199.49 192.59, 116.22 195.19, 32 198.31 C12.1 195.48, 2.91 190.72, 0 166.31 C-4.32 124.29, 0.77 83.72, 0 32 C3.25 9.7, 7.16 -3.6, 32 0" stroke="none" stroke-width="0" fill="#e9ecef"></path><path d="M32 0 C115.62 -1.42, 195.95 -1.14, 287.74 0 M32 0 C120.63 1.69, 210.3 1.63, 287.74 0 M287.74 0 C309.91 0.13, 317.76 12.23, 319.74 32 M287.74 0 C310.14 -0.97, 320.32 8.38, 319.74 32 M319.74 32 C321.24 61.64, 321.04 90, 319.74 166.31 M319.74 32 C320.09 60.12, 320.25 87.28, 319.74 166.31 M319.74 166.31 C321.13 186.95, 307.47 198.56, 287.74 198.31 M319.74 166.31 C320.2 185.37, 306.86 198.64, 287.74 198.31 M287.74 198.31 C195.13 198.81, 103.74 197.04, 32 198.31 M287.74 198.31 C226.32 200.52, 167.09 199.68, 32 198.31 M32 198.31 C10.9 196.85, 0.48 187.62, 0 166.31 M32 198.31 C9.21 199.01, 1.75 188.25, 0 166.31 M0 166.31 C1.43 134.91, -0.94 102.75, 0 32 M0 166.31 C0.42 129.28, 1.69 92.5, 0 32 M0 32 C-0.49 9.74, 11.14 -0.26, 32 0 M0 32 C-0.48 10.95, 9.93 -1.09, 32 0" stroke="#1e1e1e" stroke-width="2" fill="none"></path></g><g stroke-linecap="round" transform="translate(559.1938231728448 68.50483118630575) rotate(0 159.8694539194645 99.15393718380648)"><path d="M32 0 C108.2 0.78, 180.52 1.46, 287.74 0 C312.54 -1.67, 317.89 13.41, 319.74 32 C317.55 80.66, 318.83 125.73, 319.74 166.31 C322.18 184.55, 310.17 196.05, 287.74 198.31 C228.96 198.93, 166.31 199.38, 32 198.31 C8.88 196.07, -2.76 187.69, 0 166.31 C-2.97 139.77, -0.44 111.76, 0 32 C-1.21 7.47, 11.56 0.26, 32 0" stroke="none" stroke-width="0" fill="#e9ecef"></path><path d="M32 0 C104.63 -1.11, 177.69 -2.88, 287.74 0 M32 0 C123.52 0.03, 215.6 0.27, 287.74 0 M287.74 0 C308.49 1.31, 320.64 12.32, 319.74 32 M287.74 0 C308.67 0.87, 321.37 10.94, 319.74 32 M319.74 32 C319.63 80.48, 320.72 125.56, 319.74 166.31 M319.74 32 C319.36 66.98, 319.78 99.24, 319.74 166.31 M319.74 166.31 C319.87 187.9, 307.43 197.3, 287.74 198.31 M319.74 166.31 C318.07 185.53, 309.44 200.41, 287.74 198.31 M287.74 198.31 C200.81 197.62, 115.07 196.23, 32 198.31 M287.74 198.31 C206.34 200.21, 124.27 199.63, 32 198.31 M32 198.31 C9.35 199.87, 1.71 187.49, 0 166.31 M32 198.31 C11.26 198.94, 0.82 187.7, 0 166.31 M0 166.31 C0.09 114.28, -2.4 61.69, 0 32 M0 166.31 C-0.49 124.25, -1.12 81.49, 0 32 M0 32 C1.94 11.35, 11.68 -1.71, 32 0 M0 32 C0.22 12.08, 9.73 0.1, 32 0" stroke="#1e1e1e" stroke-width="2" fill="none"></path></g><g transform="translate(215.27133346524704 26.86973001156298) rotate(0 51.13995361328125 12.5)"><text x="0" y="0" font-family="Virgil, Segoe UI Emoji" font-size="20px" fill="#1e1e1e" text-anchor="start" style="white-space: pre;" direction="ltr" dominant-baseline="text-before-edge">Commit Tx</text></g><g transform="translate(670.9925977000876 21.93422343722534) rotate(0 50.90996551513672 12.5)"><text x="0" y="0" font-family="Virgil, Segoe UI Emoji" font-size="20px" fill="#1e1e1e" text-anchor="start" style="white-space: pre;" direction="ltr" dominant-baseline="text-before-edge">Reveal Tx</text></g><g stroke-linecap="round" transform="translate(112.68822527988016 96.25942324638083) rotate(0 62.876478510363995 25.13056704793206)"><path d="M12.57 0 C45.51 2.55, 83.43 0.98, 113.19 0 C123.35 1.1, 123.32 0.96, 125.75 12.57 C121.9 15.86, 125.15 23.06, 125.75 37.7 C124.21 42.67, 124.68 50.28, 113.19 50.26 C79.87 54.77, 42.1 48, 12.57 50.26 C4.96 51.77, -0.25 47, 0 37.7 C-1.58 32.68, 1.03 22.9, 0 12.57 C3.1 2.73, 4.27 -0.34, 12.57 0" stroke="none" stroke-width="0" fill="#ffffff"></path><path d="M12.57 0 C35.11 1.67, 59.13 -1.29, 113.19 0 M12.57 0 C34.27 -0.34, 58.28 0.17, 113.19 0 M113.19 0 C123.3 -1.91, 123.87 3.4, 125.75 12.57 M113.19 0 C123.11 -0.28, 127.76 6.38, 125.75 12.57 M125.75 12.57 C127.15 19.44, 126.14 24.9, 125.75 37.7 M125.75 12.57 C125.84 18.32, 126.24 24.04, 125.75 37.7 M125.75 37.7 C127.22 44.97, 122.8 49.64, 113.19 50.26 M125.75 37.7 C127.58 46.62, 122.64 49.06, 113.19 50.26 M113.19 50.26 C81.83 51.06, 53.68 50.47, 12.57 50.26 M113.19 50.26 C82.81 49.91, 51.73 49.87, 12.57 50.26 M12.57 50.26 C2.84 50.65, 1.15 44.86, 0 37.7 M12.57 50.26 C4.38 50.65, 0.07 46.72, 0 37.7 M0 37.7 C0.82 30.03, 0.72 20.52, 0 12.57 M0 37.7 C0.1 28.55, 0 18.65, 0 12.57 M0 12.57 C-0.02 2.77, 3.98 -0.61, 12.57 0 M0 12.57 C-1.3 4.93, 5.78 0.85, 12.57 0" stroke="#1e1e1e" stroke-width="2" fill="none"></path></g><g transform="translate(149.98071941524415 111.38999029431295) rotate(0 25.583984375 10)"><text x="25.583984375" y="0" font-family="Virgil, Segoe UI Emoji" font-size="16px" fill="#1e1e1e" text-anchor="middle" style="white-space: pre;" direction="ltr" dominant-baseline="text-before-edge">P2PKH</text></g><g stroke-linecap="round" transform="translate(278.4314903553021 93.2808002596239) rotate(0 62.876478510363995 25.13056704793206)"><path d="M12.57 0 C47.89 3.53, 75.09 0.57, 113.19 0 C119 -0.36, 123.5 4.34, 125.75 12.57 C128.53 21.46, 125.19 34.99, 125.75 37.7 C122.83 42.89, 124.8 46.77, 113.19 50.26 C88.22 51.36, 65.56 48.2, 12.57 50.26 C2.77 53.16, -1.94 49.39, 0 37.7 C-0.67 32.22, 3.44 24.8, 0 12.57 C2.14 2.28, 6.55 -0.06, 12.57 0" stroke="none" stroke-width="0" fill="#ffffff"></path><path d="M12.57 0 C51.61 -0.86, 91.09 -0.75, 113.19 0 M12.57 0 C35.02 -0.23, 56.26 -0.17, 113.19 0 M113.19 0 C123.32 -1.98, 124.97 6.16, 125.75 12.57 M113.19 0 C123.14 0.83, 123.47 5.78, 125.75 12.57 M125.75 12.57 C127.21 22.69, 124.31 33.48, 125.75 37.7 M125.75 12.57 C125.11 19.3, 124.83 23.46, 125.75 37.7 M125.75 37.7 C125.43 44.96, 122.01 50.84, 113.19 50.26 M125.75 37.7 C123.98 43.85, 119.27 48.29, 113.19 50.26 M113.19 50.26 C88.95 52.24, 67.56 52.53, 12.57 50.26 M113.19 50.26 C85.84 50.25, 59.64 49.12, 12.57 50.26 M12.57 50.26 C2.96 51.26, -0.32 47.93, 0 37.7 M12.57 50.26 C2.33 49.06, 2.05 47.13, 0 37.7 M0 37.7 C-1 29.24, -0.07 19.51, 0 12.57 M0 37.7 C0.98 27.86, 0.73 20.12, 0 12.57 M0 12.57 C0.65 2.95, 5.56 1.19, 12.57 0 M0 12.57 C2.07 4.62, 3.71 0.59, 12.57 0" stroke="#1e1e1e" stroke-width="2" fill="none"></path></g><g transform="translate(318.46798015717 108.4113673075559) rotate(0 22.839988708496094 10)"><text x="22.839988708496094" y="0" font-family="Virgil, Segoe UI Emoji" font-size="16px" fill="#1e1e1e" text-anchor="middle" style="white-space: pre;" direction="ltr" dominant-baseline="text-before-edge">P2TR</text></g><g stroke-linecap="round" transform="translate(577.1781980970871 89.56795087837259) rotate(0 62.87647851036405 25.13056704793206)"><path d="M12.57 0 C36.34 -1.22, 56.41 2.02, 113.19 0 C123.95 0.02, 123.84 7.32, 125.75 12.57 C128.14 20.95, 122.16 25.77, 125.75 37.7 C127.36 43.63, 122.17 50.52, 113.19 50.26 C90.72 50.77, 59.48 52.82, 12.57 50.26 C7.35 52.25, -0.25 49.2, 0 37.7 C-0.19 29, -0.43 23.29, 0 12.57 C-2.09 7.58, 4.03 -3.35, 12.57 0" stroke="none" stroke-width="0" fill="#ffffff"></path><path d="M12.57 0 C37.1 -2.12, 60.27 -2.08, 113.19 0 M12.57 0 C48.01 0.02, 84.01 0.98, 113.19 0 M113.19 0 C119.7 1.89, 124.45 5.38, 125.75 12.57 M113.19 0 C121.74 -1.4, 125.54 5.1, 125.75 12.57 M125.75 12.57 C126.82 22.97, 126.73 30.98, 125.75 37.7 M125.75 12.57 C125.27 18.25, 125.62 25.02, 125.75 37.7 M125.75 37.7 C127.09 45.96, 122.15 51.07, 113.19 50.26 M125.75 37.7 C126.87 47.24, 121.82 48.98, 113.19 50.26 M113.19 50.26 C86.39 52.54, 59.05 51.29, 12.57 50.26 M113.19 50.26 C89.38 49.86, 63.89 51.59, 12.57 50.26 M12.57 50.26 C5.26 52.02, -1.64 44.36, 0 37.7 M12.57 50.26 C3.41 48.35, 0.02 46.84, 0 37.7 M0 37.7 C0.94 27.07, 1.83 16.91, 0 12.57 M0 37.7 C-0.42 28.59, -0.8 20.75, 0 12.57 M0 12.57 C-1.12 4.69, 2.34 1.19, 12.57 0 M0 12.57 C-1.64 2.21, 4.68 -1.15, 12.57 0" stroke="#1e1e1e" stroke-width="2" fill="none"></path></g><g transform="translate(617.214687898955 104.69851792630459) rotate(0 22.83998870849615 10)"><text x="22.839988708496094" y="0" font-family="Virgil, Segoe UI Emoji" font-size="16px" fill="#1e1e1e" text-anchor="middle" style="white-space: pre;" direction="ltr" dominant-baseline="text-before-edge">P2TR</text></g><g stroke-linecap="round" transform="translate(732.2209478209243 87.2901803590878) rotate(0 62.876478510363995 25.13056704793206)"><path d="M12.57 0 C53.17 -0.5, 89.56 0.19, 113.19 0 C121.6 2.04, 122.35 1.56, 125.75 12.57 C123.71 23.59, 128.27 29.53, 125.75 37.7 C127.12 49.48, 120.59 53.84, 113.19 50.26 C88.81 47.46, 69.96 48.98, 12.57 50.26 C7.22 51.68, 3.52 46.39, 0 37.7 C-0.35 31.8, 2.09 23.12, 0 12.57 C2.1 5.33, 1.62 2.82, 12.57 0" stroke="none" stroke-width="0" fill="#ffffff"></path><path d="M12.57 0 C51.72 1.26, 85.68 -0.94, 113.19 0 M12.57 0 C51.81 -0.74, 91.94 0.48, 113.19 0 M113.19 0 C121.88 1.88, 126.14 4.41, 125.75 12.57 M113.19 0 C122.86 0.96, 126.76 4.97, 125.75 12.57 M125.75 12.57 C126.47 18.12, 127.07 21.63, 125.75 37.7 M125.75 12.57 C125.99 19.65, 126.52 27.39, 125.75 37.7 M125.75 37.7 C127.46 45.62, 120.69 49.52, 113.19 50.26 M125.75 37.7 C126.67 47.82, 119.57 48.86, 113.19 50.26 M113.19 50.26 C79.92 50.37, 43.72 50.06, 12.57 50.26 M113.19 50.26 C81.76 50.09, 49.14 50.67, 12.57 50.26 M12.57 50.26 C5.17 48.97, 1.22 46.61, 0 37.7 M12.57 50.26 C4.02 50.47, -0.58 48.03, 0 37.7 M0 37.7 C1.37 30.71, 1.7 27.52, 0 12.57 M0 37.7 C0.76 32.87, 0.56 26.3, 0 12.57 M0 12.57 C0.73 5.11, 4.79 1.44, 12.57 0 M0 12.57 C0.22 3.52, 3.13 -1.54, 12.57 0" stroke="#1e1e1e" stroke-width="2" fill="none"></path></g><g transform="translate(769.5134419562883 102.4207474070198) rotate(0 25.583984375 10)"><text x="25.583984375" y="0" font-family="Virgil, Segoe UI Emoji" font-size="16px" fill="#1e1e1e" text-anchor="middle" style="white-space: pre;" direction="ltr" dominant-baseline="text-before-edge">P2PKH</text></g><g transform="translate(52.24804344215772 19.595341134852333) rotate(0 41.51997375488281 10)"><text x="0" y="0" font-family="Virgil, Segoe UI Emoji" font-size="16px" fill="#1e1e1e" text-anchor="start" style="white-space: pre;" direction="ltr" dominant-baseline="text-before-edge">ECDSA Sig</text></g><g stroke-linecap="round"><g transform="translate(96.7251933446446 50.66229545190913) rotate(0 16.997372035671958 19.53000491947114)"><path d="M-0.45 -0.47 C5.47 6.31, 29.3 33.45, 34.9 40.03 M1.52 -1.77 C7.42 4.75, 28.75 31.4, 34.42 38.42" stroke="#1e1e1e" stroke-width="2" fill="none"></path></g></g><mask></mask><g transform="translate(485.3470293558065 10) rotate(0 85.97595977783209 10)"><text x="0" y="0" font-family="Virgil, Segoe UI Emoji" font-size="16px" fill="#1e1e1e" text-anchor="start" style="white-space: pre;" direction="ltr" dominant-baseline="text-before-edge">Schnorr Sig + Content</text></g><g stroke-linecap="round"><g transform="translate(579.6160702213342 35.09753023679718) rotate(0 16.124825000862984 23.9082469707335)"><path d="M0.86 -1.04 C6.29 6.84, 26.6 39.17, 31.64 47.5 M-0.15 1.03 C5.77 9.07, 28.44 41.18, 34.03 48.87" stroke="#1e1e1e" stroke-width="2" fill="none"></path></g></g><mask></mask><g stroke-linecap="round"><g transform="translate(571.1250020833838 117.04720804051192) rotate(0 -80.10368246528355 0.4067447355865852)"><path d="M-0.63 -1.11 C-27.23 -1.13, -133.98 -0.19, -160.6 0.3 M1.24 0.92 C-25.46 1.02, -134.68 1.72, -161.76 1.57" stroke="#1e1e1e" stroke-width="2" fill="none"></path></g><g transform="translate(571.1250020833838 117.04720804051192) rotate(0 -80.10368246528355 0.4067447355865852)"><path d="M-138.28 -7.01 C-145.15 -5.95, -149.19 -3.74, -161.76 1.57 M-138.28 -7.01 C-146.73 -4.55, -155.46 0.56, -161.76 1.57" stroke="#1e1e1e" stroke-width="2" fill="none"></path></g><g transform="translate(571.1250020833838 117.04720804051192) rotate(0 -80.10368246528355 0.4067447355865852)"><path d="M-138.26 10.09 C-145.19 7.48, -149.24 6.01, -161.76 1.57 M-138.26 10.09 C-146.85 5.95, -155.59 4.45, -161.76 1.57" stroke="#1e1e1e" stroke-width="2" fill="none"></path></g></g><mask></mask><g stroke-linecap="round"><g transform="translate(108.92948674897275 120.67245086332946) rotate(0 -49.113905354466226 0.027116315705768557)"><path d="M0.34 -0.79 C-15.88 -0.84, -81.44 0.85, -98.07 0.81 M-0.94 1.42 C-17.24 1.53, -82.9 -0.63, -98.93 -0.91" stroke="#1e1e1e" stroke-width="2" fill="none"></path></g><g transform="translate(108.92948674897275 120.67245086332946) rotate(0 -49.113905354466226 0.027116315705768557)"><path d="M-75.23 -8.85 C-82.15 -6.61, -85.27 -6.93, -98.93 -0.91 M-75.23 -8.85 C-80.73 -6.53, -84.84 -5.84, -98.93 -0.91" stroke="#1e1e1e" stroke-width="2" fill="none"></path></g><g transform="translate(108.92948674897275 120.67245086332946) rotate(0 -49.113905354466226 0.027116315705768557)"><path d="M-75.66 8.24 C-82.65 6.38, -85.66 1.95, -98.93 -0.91 M-75.66 8.24 C-80.94 6.95, -84.95 4.01, -98.93 -0.91" stroke="#1e1e1e" stroke-width="2" fill="none"></path></g></g><mask></mask><g transform="translate(936.0307963793402 34.05425790145716) rotate(0 108.81592559814453 20)"><text x="0" y="0" font-family="Virgil, Segoe UI Emoji" font-size="16px" fill="#1e1e1e" text-anchor="start" style="white-space: pre;" direction="ltr" dominant-baseline="text-before-edge">Some destination address.</text><text x="0" y="20" font-family="Virgil, Segoe UI Emoji" font-size="16px" fill="#1e1e1e" text-anchor="start" style="white-space: pre;" direction="ltr" dominant-baseline="text-before-edge">This will own the inscription.</text></g><g stroke-linecap="round"><g transform="translate(926.2819899749254 59.397920850045125) rotate(0 -31.55087625888268 17.291865938525632)"><path d="M-0.47 -0.28 C-10.99 5.54, -51.72 28.84, -62.13 34.5 M1.49 -1.48 C-9.19 4.57, -51.72 29.99, -62.56 35.99" stroke="#1e1e1e" stroke-width="2" fill="none"></path></g></g><mask></mask></svg>